<?xml version="1.0" standalone="no"?><!DOCTYPE svg PUBLIC "-//W3C//DTD SVG 1.1//EN" "http://www.w3.org/Graphics/SVG/1.1/DTD/svg11.dtd"><svg t="1687946235837" class="icon" viewBox="0 0 1024 1024" version="1.1" xmlns="http://www.w3.org/2000/svg" p-id="4152" xmlns:xlink="http://www.w3.org/1999/xlink" width="200" height="200"><path d="M768 401.066667L234.666667 68.266667C149.333333 21.333333 42.666667 81.066667 42.666667 179.2v665.6c0 98.133333 106.666667 162.133333 192 110.933333L768 622.933333c85.333333-51.2 85.333333-170.666667 0-221.866666z m-42.666667 149.333333L192 883.2c-29.866667 12.8-64-4.266667-64-38.4V179.2c0-34.133333 34.133333-51.2 64-38.4L725.333333 473.6c29.866667 17.066667 29.866667 59.733333 0 76.8z" fill="#303133" p-id="4153"></path><path d="M853.333333 128c0-25.6 17.066667-42.666667 42.666667-42.666667s42.666667 17.066667 42.666667 42.666667v768c0 25.6-17.066667 42.666667-42.666667 42.666667s-42.666667-17.066667-42.666667-42.666667V128z" fill="#303133" p-id="4154"></path></svg>