<?xml version="1.0" standalone="no"?>
<!DOCTYPE svg PUBLIC "-//W3C//DTD SVG 1.1//EN" "http://www.w3.org/Graphics/SVG/1.1/DTD/svg11.dtd">
<svg t="1687851018656" class="icon" viewBox="0 0 1024 1024" version="1.1"
  xmlns="http://www.w3.org/2000/svg" p-id="3523" xmlns:xlink="http://www.w3.org/1999/xlink"
  width="200" height="200">
  <path
    d="M810.666667 213.333333c72.533333 0 128 55.466667 128 128s-55.466667 128-128 128H213.333333v85.333334h597.333334c119.466667 0 213.333333-93.866667 213.333333-213.333334s-93.866667-213.333333-213.333333-213.333333H213.333333v85.333333h597.333334z"
    fill="#303133" p-id="3524"></path>
  <path
    d="M213.333333 554.666667h597.333334v-85.333334H213.333333c-119.466667 0-213.333333 93.866667-213.333333 213.333334s93.866667 213.333333 213.333333 213.333333h597.333334v-85.333333H213.333333c-72.533333 0-128-55.466667-128-128s55.466667-128 128-128zM128 42.666667C55.466667 42.666667 0 98.133333 0 170.666667s55.466667 128 128 128 128-55.466667 128-128-55.466667-128-128-128z m0 170.666666c-25.6 0-42.666667-17.066667-42.666667-42.666666s17.066667-42.666667 42.666667-42.666667 42.666667 17.066667 42.666667 42.666667-17.066667 42.666667-42.666667 42.666666z"
    fill="#303133" p-id="3525"></path>
  <path
    d="M896 725.333333c-72.533333 0-128 55.466667-128 128s55.466667 128 128 128 128-55.466667 128-128-55.466667-128-128-128z m0 170.666667c-25.6 0-42.666667-17.066667-42.666667-42.666667s17.066667-42.666667 42.666667-42.666666 42.666667 17.066667 42.666667 42.666666-17.066667 42.666667-42.666667 42.666667z"
    fill="#303133" p-id="3526"></path>
</svg>